<svg width="640" height="640" viewBox="0 0 640 640" fill="none" xmlns="http://www.w3.org/2000/svg">
<rect width="640" height="640" rx="80" fill="black"/>
<path d="M413.4 402.88C399.96 402.88 387.08 401.12 374.76 397.6C362.44 393.92 352.52 389.2 345 383.44L358.2 354.16C365.4 359.28 373.88 363.52 383.64 366.88C393.56 370.08 403.56 371.68 413.64 371.68C421.32 371.68 427.48 370.96 432.12 369.52C436.92 367.92 440.44 365.76 442.68 363.04C444.92 360.32 446.04 357.2 446.04 353.68C446.04 349.2 444.28 345.68 440.76 343.12C437.24 340.4 432.6 338.24 426.84 336.64C421.08 334.88 414.68 333.28 407.64 331.84C400.76 330.24 393.8 328.32 386.76 326.08C379.88 323.84 373.56 320.96 367.8 317.44C362.04 313.92 357.32 309.28 353.64 303.52C350.12 297.76 348.36 290.4 348.36 281.44C348.36 271.84 350.92 263.12 356.04 255.28C361.32 247.28 369.16 240.96 379.56 236.32C390.12 231.52 403.32 229.12 419.16 229.12C429.72 229.12 440.12 230.4 450.36 232.96C460.6 235.36 469.64 239.04 477.48 244L465.48 273.52C457.64 269.04 449.8 265.76 441.96 263.68C434.12 261.44 426.44 260.32 418.92 260.32C411.4 260.32 405.24 261.2 400.44 262.96C395.64 264.72 392.2 267.04 390.12 269.92C388.04 272.64 387 275.84 387 279.52C387 283.84 388.76 287.36 392.28 290.08C395.8 292.64 400.44 294.72 406.2 296.32C411.96 297.92 418.28 299.52 425.16 301.12C432.2 302.72 439.16 304.56 446.04 306.64C453.08 308.72 459.48 311.52 465.24 315.04C471 318.56 475.64 323.2 479.16 328.96C482.84 334.72 484.68 342 484.68 350.8C484.68 360.24 482.04 368.88 476.76 376.72C471.48 384.56 463.56 390.88 453 395.68C442.6 400.48 429.4 402.88 413.4 402.88Z" fill="white"/>
<path d="M159.922 400V232H236.242C254.482 232 270.562 235.52 284.482 242.56C298.402 249.44 309.282 259.12 317.122 271.6C324.962 284.08 328.882 298.88 328.882 316C328.882 332.96 324.962 347.76 317.122 360.4C309.282 372.88 298.402 382.64 284.482 389.68C270.562 396.56 254.482 400 236.242 400H159.922ZM198.802 368.08H234.322C245.522 368.08 255.202 366 263.362 361.84C271.682 357.52 278.082 351.44 282.562 343.6C287.202 335.76 289.522 326.56 289.522 316C289.522 305.28 287.202 296.08 282.562 288.4C278.082 280.56 271.682 274.56 263.362 270.4C255.202 266.08 245.522 263.92 234.322 263.92H198.802V368.08Z" fill="white"/>
<path d="M486.672 569.44C544.381 530.88 586.935 473.503 607.082 407.085C624.823 348.601 624.224 286.294 605.694 228.464C610.428 223.16 613.306 216.163 613.306 208.495C613.306 191.926 599.874 178.495 583.306 178.495C566.737 178.495 553.306 191.926 553.306 208.495C553.306 222.974 563.563 235.057 577.207 237.874C593.804 289.849 594.314 345.828 578.374 398.376C560.241 458.152 521.943 509.792 470.004 544.496C418.066 579.2 355.701 594.822 293.536 588.7C231.371 582.577 173.252 555.089 129.082 510.919C84.9121 466.749 57.4237 408.631 51.3007 346.466C45.1777 284.301 60.7989 221.936 95.5027 169.997C130.207 118.059 181.846 79.7599 241.622 61.6267C296.601 44.9484 355.335 46.2785 409.311 65.1987C417.129 67.9392 425.893 64.3472 429.063 56.6935C432.233 49.0398 428.608 40.2271 420.806 37.4433C360.403 15.8924 294.535 14.2251 232.913 32.9186C166.495 53.0666 109.118 95.6208 70.5586 153.33C31.9988 211.04 14.6418 280.334 21.4452 349.406C28.2485 418.479 58.7912 483.055 107.869 532.133C156.947 581.21 221.524 611.752 290.596 618.555C359.668 625.358 428.962 608 486.672 569.44Z" fill="white"/>
<path fill-rule="evenodd" clip-rule="evenodd" d="M490 440C490 445.523 485.523 450 480 450L160 450C154.477 450 150 445.523 150 440C150 434.477 154.477 430 160 430L480 430C485.523 430 490 434.477 490 440Z" fill="white"/>
</svg>
